<svg width="284" height="313" fill="none" xmlns="http://www.w3.org/2000/svg"><g clip-path="url(#clip0)" fill="#6D9B7F"><path d="M129.617 197.885c0-9.492-7.721-17.214-17.213-17.214s-17.213 7.722-17.213 17.214c0 9.491 7.721 17.212 17.213 17.212s17.213-7.721 17.213-17.212zm-25.05 0c0-4.322 3.515-7.839 7.837-7.839 4.322 0 7.838 3.516 7.838 7.839 0 4.321-3.515 7.837-7.838 7.837-4.322 0-7.837-3.516-7.837-7.837zm103.029 17.212c9.491 0 17.212-7.721 17.212-17.212 0-9.492-7.721-17.214-17.212-17.214s-17.213 7.722-17.213 17.214c0 9.491 7.722 17.212 17.213 17.212zm0-25.051c4.322 0 7.837 3.516 7.837 7.839 0 4.321-3.515 7.837-7.837 7.837-4.322 0-7.838-3.516-7.838-7.837 0-4.322 3.516-7.839 7.838-7.839z"/><path d="M322.148 57.99c0-31.804-25.875-57.678-57.678-57.678-31.323 0-56.893 25.098-57.659 56.239-14.487-3.813-29.909-5.802-45.737-5.802-15.828 0-31.249 1.989-45.736 5.802C114.572 25.41 89.001.312 57.678.312 25.875.312 0 26.186 0 57.99c0 23.597 14.627 44.843 36.188 53.525-7.188 12.386-10.97 25.856-10.97 39.783 0 26.144 8.463 52.453 25.15 78.197a4.717 4.717 0 006.528 1.392 4.72 4.72 0 001.393-6.527c-15.681-24.189-23.632-48.771-23.632-73.062 0-50.24 56.71-91.112 126.417-91.112 69.706 0 126.417 40.872 126.417 91.112 0 33.699-15.791 65.424-36.931 91.111h-34.006a4.72 4.72 0 000 9.438h25.76a222.94 222.94 0 01-17.435 16.865l-21.346-10.673a4.718 4.718 0 10-4.221 8.441l17.611 8.805c-9.846 7.757-19.731 14.148-28.927 18.889-.023-.058-.042-.118-.066-.176a10.005 10.005 0 00-9.271-6.195h-36.397a10.001 10.001 0 00-9.106 5.832c-8.278-4.395-17.897-10.556-27.865-18.384l17.542-8.771a4.717 4.717 0 002.11-6.33 4.717 4.717 0 00-6.331-2.111l-21.296 10.648a222.233 222.233 0 01-17.478-16.84h25.753a4.719 4.719 0 100-9.438H40.025a4.72 4.72 0 000 9.438h27.153a233.823 233.823 0 0021.007 21.407l-20.008 10.003a4.718 4.718 0 104.22 8.442l23.558-11.779c12.994 10.667 26.663 19.507 39.66 25.462l10.538 10.538c3.945 3.945 9.127 5.918 14.309 5.918 5.182 0 10.364-1.973 14.309-5.918l9.676-9.676c.254-.065.507-.145.756-.256 13.205-5.866 27.435-15.031 40.933-26.097l23.615 11.808a4.72 4.72 0 004.221-8.442l-20.054-10.027c7.475-6.684 14.6-13.897 21.054-21.383h27.152a4.72 4.72 0 000-9.438h-19.479c16.746-21.847 34.285-53.666 34.285-91.111 0-13.928-3.781-27.397-10.969-39.784 21.56-8.681 36.187-29.927 36.187-53.524zm-312.71 0c0-26.6 21.64-48.24 48.24-48.24 26.599 0 48.239 21.64 48.239 48.24 0 .448-.01.9-.023 1.35a157.342 157.342 0 00-11.108 4.109c.261-1.797.394-3.618.394-5.46 0-20.678-16.824-37.502-37.503-37.502-20.68 0-37.502 16.824-37.502 37.503 0 17.659 12.271 32.496 28.732 36.457a100.05 100.05 0 00-7.437 8.982C22.474 96.646 9.438 78.367 9.438 57.989zm48.18 28.063C42.17 86.021 29.611 73.445 29.611 57.99c0-15.475 12.59-28.065 28.066-28.065 15.475 0 28.065 12.59 28.065 28.065 0 3.671-.7 7.237-2.073 10.601-6.399 3.289-12.458 7.006-18.108 11.135a123.176 123.176 0 00-7.945 6.327zm110.48 223.194c-4.21 4.21-11.061 4.21-15.272 0l-10.982-10.982-.032-.034c-.096-.1-.24-.284-.101-.62.153-.369.423-.369.552-.369h36.397c.129 0 .399 0 .552.369.153.369-.038.559-.129.651l-10.985 10.985zm112.58-205.817a99.889 99.889 0 00-7.438-8.983c16.461-3.96 28.733-18.797 28.733-36.457 0-6.55-1.715-13-4.96-18.65a4.72 4.72 0 00-8.185 4.7 28.051 28.051 0 013.707 13.95c0 15.455-12.557 28.031-28.005 28.064a122.972 122.972 0 00-7.944-6.327c-5.651-4.13-11.71-7.846-18.108-11.135a27.898 27.898 0 01-2.073-10.602c0-15.474 12.59-28.065 28.065-28.065a27.9 27.9 0 0110.765 2.138 4.719 4.719 0 103.623-8.715 37.28 37.28 0 00-14.388-2.86c-20.679 0-37.503 16.823-37.503 37.502 0 1.842.133 3.664.394 5.46a157.316 157.316 0 00-11.108-4.109 46.97 46.97 0 01-.023-1.35c0-26.6 21.64-48.24 48.239-48.24 26.6 0 48.241 21.64 48.241 48.239 0 20.377-13.037 38.656-32.032 45.44z"/></g><defs><clipPath id="clip0"><path fill="#fff" d="M0 0h320v320H0z"/></clipPath></defs></svg>