<svg width="273" height="320" fill="none" xmlns="http://www.w3.org/2000/svg"><g clip-path="url(#clip0)" fill="#6D9B7F"><path d="M308.343 157.268a14.34 14.34 0 00-10.829 2.183 14.334 14.334 0 00-5.607 7.302l-16.445-7.181a114.844 114.844 0 00-3.548-31.885l7.377-5.004c4.675 4.095 11.471 5.32 17.42 2.735 8.006-3.479 11.84-12.743 8.729-21.091l-3.473-9.32c-3.148-8.45-12.204-12.901-20.615-10.14-4.257 1.397-7.683 4.38-9.645 8.396a16.365 16.365 0 00-1.681 7.198l-8.369 1.168a116.733 116.733 0 00-3.737-6.353 4.697 4.697 0 00-7.947 5.009 105.274 105.274 0 014.3 7.46 6.564 6.564 0 006.708 3.463l15.091-2.107a4.694 4.694 0 003.772-6.237 6.998 6.998 0 01.302-5.476 6.992 6.992 0 014.136-3.596c3.543-1.163 7.526.855 8.883 4.497l3.472 9.319c1.344 3.607-.302 7.732-3.67 9.196-3.224 1.4-7.02.2-8.835-2.792a4.696 4.696 0 00-6.652-1.451l-12.517 8.49a6.543 6.543 0 00-2.63 7.164 105.333 105.333 0 013.67 32.883c-.124 2.694 1.45 5.228 3.916 6.304l23.467 10.248a4.694 4.694 0 006.488-3.399l.744-3.789a5.008 5.008 0 012.135-3.212 5.002 5.002 0 013.781-.763 5.046 5.046 0 013.976 5.916l-3.848 19.612a4.998 4.998 0 01-2.235 3.279 5.018 5.018 0 01-3.925.643c-2.568-.631-4.218-3.381-3.679-6.131l.103-.524a4.698 4.698 0 00-4.823-5.596l-25.385 1.158c-2.687.122-5.064 1.925-5.913 4.487a104.83 104.83 0 01-9.278 20.391 6.553 6.553 0 00.618 7.551l11.23 13.341a4.7 4.7 0 006.831.378 6.983 6.983 0 019.099-.49 6.982 6.982 0 012.697 4.655 6.986 6.986 0 01-1.385 5.199l-3.255 4.253c-2.337 3.054-6.704 3.84-9.733 1.752a7.067 7.067 0 01-2.677-8.041 4.696 4.696 0 00-2.562-5.801l-16.177-7.105a6.541 6.541 0 00-7.475 1.591 105.458 105.458 0 01-24.758 20.058 6.583 6.583 0 00-3.164 6.709l4.141 25.253a4.697 4.697 0 006.381 3.601l3.583-1.434a4.997 4.997 0 013.967.096 5.008 5.008 0 012.673 2.947c.865 2.498-.548 5.378-3.151 6.419l-18.3 7.321a5 5 0 01-3.968-.096 5.005 5.005 0 01-2.672-2.945c-.865-2.499.547-5.379 3.148-6.42l.496-.197a4.698 4.698 0 002.078-7.09l-14.764-20.686a6.584 6.584 0 00-6.974-2.53 105.49 105.49 0 01-26.45 3.363 105.79 105.79 0 01-21.097-2.126 6.593 6.593 0 00-6.834 2.89l-14.777 23.177a4.699 4.699 0 002.352 6.939l.523.191a7.1 7.1 0 014.032 3.699 7.109 7.109 0 01.236 5.467 4.68 4.68 0 00-.285 1.609c0 1.777-.524 3.123-1.476 3.788-.951.667-2.394.699-4.064.089l-18.154-6.619c-3.635-1.325-5.57-5.379-4.315-9.036.6-1.744 1.89-3.162 3.633-3.993 1.842-.879 3.983-.988 5.872-.299l.416.151a4.692 4.692 0 004.085-.421 4.692 4.692 0 002.192-3.474l3.009-27.163c.296-2.672-1.114-5.298-3.509-6.534a105.16 105.16 0 01-29.2-22.293 6.569 6.569 0 00-7.3-1.631l-22.154 9.085a4.695 4.695 0 00-2.36 6.559 5.708 5.708 0 01-1.916 7.494c-2.575 1.694-6.18.902-8.033-1.766l-5.675-8.168c-1.82-2.62-1.386-6.136.987-8.006a5.7 5.7 0 014.283-1.193 5.706 5.706 0 013.853 2.233 4.694 4.694 0 007.264.28l15.604-17.637a6.56 6.56 0 00.816-7.514 105.141 105.141 0 01-4.638-9.471 4.698 4.698 0 00-8.632 3.707 115.73 115.73 0 004.095 8.55L48.66 222.571a15.107 15.107 0 00-5.985-2.099c-4.062-.522-8.072.59-11.297 3.132-6.268 4.94-7.536 14.052-2.886 20.744l5.674 8.167c4.736 6.817 14.114 8.725 20.91 4.256 5.082-3.343 7.531-9.172 6.676-14.851l16.333-6.699a114.466 114.466 0 0028.716 21.919l-2.234 20.176a17.095 17.095 0 00-7.833 1.652c-4.038 1.926-7.048 5.271-8.473 9.42-2.907 8.465 1.57 17.847 9.981 20.914l18.154 6.619c1.822.665 3.653.993 5.415.993 2.656 0 5.159-.745 7.254-2.211 3.286-2.3 5.251-6.154 5.464-10.661a16.425 16.425 0 00-.809-11.865 16.479 16.479 0 00-4.799-6.054l11.029-17.298c15.838 2.946 32.353 2.513 47.961-1.248l10.717 15.017c-4.218 3.817-5.97 9.825-4.034 15.414 1.307 3.772 4.023 6.76 7.646 8.415a14.5 14.5 0 0011.358.273l18.301-7.321c7.313-2.925 11.063-10.927 8.538-18.216-1.307-3.772-4.022-6.761-7.646-8.416a14.507 14.507 0 00-9.487-.875l-2.903-17.697a114.781 114.781 0 0023.892-19.34l10.929 4.8c-.305 5.614 2.298 11.172 7.077 14.466 7.208 4.967 17.102 3.306 22.524-3.779l3.254-4.253a16.314 16.314 0 003.237-12.146 16.311 16.311 0 00-6.3-10.878c-5.083-3.89-11.719-4.413-17.183-1.721l-7.207-8.562a114.305 114.305 0 008.467-18.619l18.422-.84c.914 5.615 5.006 10.35 10.75 11.76 3.877.953 7.861.295 11.219-1.848a14.503 14.503 0 006.398-9.388l3.849-19.613c1.531-7.81-3.576-15.41-11.386-16.942zM30.262 169.955l17.605 4.066c.383 2.448.858 4.934 1.415 7.413a4.699 4.699 0 005.612 3.553 4.696 4.696 0 003.553-5.611 105.056 105.056 0 01-1.56-8.583c-.37-2.676-2.383-4.882-5.008-5.487l-24.934-5.759a4.698 4.698 0 00-5.754 4.535l-.025 2.919c-.03 3.268-2.712 5.927-5.98 5.927a5.751 5.751 0 01-4.113-1.714 5.751 5.751 0 01-1.678-4.128l.163-18.114a6.316 6.316 0 011.936-4.458c1.142-1.102 2.585-1.694 4.11-1.648 3.173.083 5.74 2.736 5.723 5.913a4.696 4.696 0 005.77 4.599l24.758-5.805c2.623-.615 4.627-2.827 4.988-5.503a104.02 104.02 0 0113.065-38.281 6.562 6.562 0 00-.68-7.515L57.421 82.408a4.7 4.7 0 00-7.323.211l-1.023 1.352a4.551 4.551 0 01-3.14 1.791 4.565 4.565 0 01-3.468-1.04c-1.85-1.542-2.1-4.456-.556-6.497l7.865-10.398a4.595 4.595 0 016.43-.892c1.89 1.429 2.374 4.114 1.103 6.112a4.697 4.697 0 002.098 6.831l16.51 7.14a6.55 6.55 0 007.435-1.6 105.386 105.386 0 0125.898-20.669 6.59 6.59 0 003.25-6.666l-3.803-25.305a4.699 4.699 0 00-6.332-3.687l-3.603 1.386a5.001 5.001 0 01-3.965-.148 5.007 5.007 0 01-2.632-2.982c-.832-2.51.619-5.37 3.236-6.376l18.397-7.076a4.996 4.996 0 013.965.148 5.011 5.011 0 012.633 2.982c.831 2.51-.62 5.37-3.237 6.377l-.497.191a4.7 4.7 0 00-2.803 3.003 4.699 4.699 0 00.631 4.058l14.483 20.878a6.584 6.584 0 006.936 2.622 105.633 105.633 0 0125.106-3.013h.002a6.57 6.57 0 006.182-4.344l4.795-13.418a4.697 4.697 0 00-3.021-6.064 7.608 7.608 0 01-5.282-8.154c.229-1.932 1.245-3.691 2.858-4.953 1.694-1.325 3.861-1.935 5.95-1.671l6.585.83c4.269.536 7.378 4.312 6.932 8.415a7.566 7.566 0 01-5.65 6.545 4.698 4.698 0 00-3.477 5.078l1.667 14.54a6.547 6.547 0 005.104 5.645 104.333 104.333 0 0129.877 11.608 6.582 6.582 0 007.404-.577l19.87-16.13a4.699 4.699 0 00-.039-7.325l-3.023-2.4a4.994 4.994 0 01-1.886-3.492 5.008 5.008 0 011.232-3.782c1.739-1.992 4.94-2.193 7.137-.45l15.437 12.256a4.994 4.994 0 011.886 3.491 5.01 5.01 0 01-1.232 3.782c-1.74 1.991-4.943 2.193-7.136.452l-.416-.33a4.696 4.696 0 00-7.187 1.712l-10.643 23.104c-1.126 2.443-.615 5.382 1.268 7.311a104.23 104.23 0 012.112 2.244 4.696 4.696 0 106.911-6.363c-.332-.361-.644-.7-.947-1.023l7.729-16.78c5.408 1.769 11.493.309 15.384-4.146 2.626-3.006 3.874-6.847 3.512-10.814a14.502 14.502 0 00-5.4-9.996l-15.438-12.256c-6.168-4.896-14.975-4.183-20.052 1.628-2.626 3.006-3.874 6.847-3.512 10.815a14.505 14.505 0 003.949 8.67l-13.919 11.3a113.713 113.713 0 00-28.876-11.228l-1.032-9.01c4.774-2.64 8.123-7.503 8.728-13.061.998-9.167-5.775-17.58-15.097-18.754l-6.585-.829c-4.551-.572-9.258.736-12.91 3.592-3.6 2.815-5.873 6.808-6.4 11.245-.766 6.45 2.21 12.614 7.378 16.1l-2.72 7.61a115.033 115.033 0 00-23.439 2.815l-10.511-15.153c4.268-3.76 6.101-9.743 4.24-15.357-1.257-3.79-3.932-6.815-7.533-8.518a14.5 14.5 0 00-11.353-.424l-18.397 7.076c-7.351 2.826-11.208 10.777-8.78 18.1 1.256 3.79 3.93 6.814 7.532 8.518a14.507 14.507 0 009.475 1.001l2.665 17.734a114.71 114.71 0 00-25.125 20.04L67.194 73.01c.862-5.02-1.056-10.343-5.32-13.568a13.88 13.88 0 00-10.357-2.698 13.888 13.888 0 00-9.231 5.416l-7.865 10.398c-4.602 6.083-3.709 14.597 2.034 19.38 2.971 2.476 6.718 3.598 10.554 3.157a14.037 14.037 0 006.657-2.608l7.115 8.357a113.261 113.261 0 00-12.969 38.028l-18.174 4.262c-2.207-5.506-7.545-9.494-13.785-9.659-4.063-.102-7.912 1.413-10.883 4.279-3.016 2.911-4.768 6.968-4.807 11.133l-.162 18.115a15.083 15.083 0 004.398 10.825 15.077 15.077 0 0010.786 4.495c7.42.001 13.668-5.332 15.077-12.367z"/><path d="M137.752 144.315a4.696 4.696 0 001.95-6.349 4.695 4.695 0 00-6.35-1.95c-11.224 5.949-24.018 4.377-30.416-3.742-3.59-4.554-4.826-10.59-3.478-16.993 1.413-6.715 5.453-12.984 11.377-17.653 5.923-4.67 12.963-7.13 19.821-6.94 6.541.185 12.121 2.795 15.712 7.35 5.39 6.839 5.322 17.048-.175 26.007a4.697 4.697 0 108.007 4.913c7.578-12.352 7.399-26.771-.456-36.736-5.344-6.78-13.449-10.66-22.822-10.923-9.059-.264-18.254 2.923-25.902 8.952-7.65 6.029-12.889 14.231-14.755 23.095-1.931 9.176-.051 17.964 5.293 24.743 5.627 7.138 14.437 10.893 23.916 10.893 6.039 0 12.349-1.523 18.278-4.667zm91.138-42.122c0-9.738-9.062-17.66-20.2-17.66-11.139 0-20.202 7.922-20.202 17.66 0 9.737 9.063 17.659 20.202 17.659 11.138 0 20.2-7.922 20.2-17.659zm-31.007 0c0-4.558 4.848-8.266 10.807-8.266 5.959 0 10.807 3.708 10.807 8.266s-4.848 8.266-10.807 8.266c-5.959 0-10.807-3.708-10.807-8.266zm-23.499 80.725c0-11.934-9.709-21.643-21.643-21.643-11.934 0-21.643 9.709-21.643 21.643 0 11.934 9.709 21.642 21.643 21.642 11.934 0 21.643-9.708 21.643-21.642zm-33.892 0c0-6.755 5.495-12.249 12.25-12.249 6.753 0 12.249 5.494 12.249 12.249 0 6.754-5.495 12.249-12.249 12.249-6.755 0-12.25-5.495-12.25-12.249zm95.123-8.829c0-9.28-7.55-16.83-16.83-16.83-9.28 0-16.83 7.55-16.83 16.83 0 9.281 7.55 16.831 16.83 16.831 9.28-.001 16.83-7.55 16.83-16.831zm-24.267 0c0-4.1 3.336-7.436 7.436-7.436 4.101 0 7.437 3.336 7.437 7.436 0 4.101-3.336 7.437-7.437 7.437-4.099 0-7.436-3.336-7.436-7.437zm-37.373 75.704c9.094 0 16.493-7.398 16.493-16.493 0-9.093-7.399-16.493-16.493-16.493-9.095 0-16.494 7.399-16.494 16.493 0 9.095 7.399 16.493 16.494 16.493zm0-23.592a7.107 7.107 0 017.099 7.099c0 3.915-3.184 7.1-7.099 7.1a7.108 7.108 0 01-7.1-7.1c0-3.914 3.185-7.099 7.1-7.099zm-73.812-4.132c9.366 0 16.985-7.62 16.985-16.986 0-9.365-7.619-16.985-16.985-16.985s-16.985 7.62-16.985 16.985c0 9.366 7.62 16.986 16.985 16.986zm0-24.577c4.187 0 7.591 3.406 7.591 7.591 0 4.186-3.405 7.592-7.591 7.592s-7.591-3.406-7.591-7.592c0-4.185 3.405-7.591 7.591-7.591zm95.644-51.191a4.697 4.697 0 00-4.697-4.697h-4.152a4.696 4.696 0 100 9.394h4.152a4.697 4.697 0 004.697-4.697zM131.529 233.1h4.266a4.696 4.696 0 100-9.394h-4.266a4.697 4.697 0 000 9.394zm-39.545-68.401a4.697 4.697 0 100-9.394h-4.11a4.697 4.697 0 100 9.394h4.11zm83.422-82.175a4.697 4.697 0 000-9.394h-5.719a4.696 4.696 0 100 9.394h5.719zm31.245 125.892a4.696 4.696 0 100 9.393h6.315a4.696 4.696 0 100-9.393h-6.315z"/></g><defs><clipPath id="clip0"><path fill="#fff" d="M0 0h320v320H0z"/></clipPath></defs></svg>