<svg width="389" height="370" fill="none" xmlns="http://www.w3.org/2000/svg"><path d="M320.59 286.064c-2.703-5.17-7.316-8.766-12.659-9.879-5.318-1.1-10.831.378-15.08 4.09l-9.026 7.9c1.622-10.911 2.841-22.64 3.727-35.015l22.654-16.513c2.238-1.637 4.934-2.2 7.562-1.575 2.634.619 4.871 2.338 6.304 4.84l22.604 39.552 10.654-7.294-22.597-39.545c-3.25-5.686-8.329-9.591-14.313-11-5.99-1.41-12.093-.145-17.185 3.575l-14.689 10.711c.509-11.983.748-24.503.634-37.709l-.037-4.868c0-.289-.044-.536-.051-.818 26.752-4.599 69.194-24.613 69.194-74.807h-12.572c0 47.389-45.458 58.898-59.425 61.318-3.834-8.683-11.044-13.935-18.499-16.864 4.048-7.542 8.781-19.986 8.781-37.579 0-20.927-16.984-34.623-39.424-41.869-2.527-7.817-7.511-17.228-15.651-24.131 4.23-13.104 16.902-44 42.504-44 32.679 0 56.571 72.346 56.571 110h12.572C333.143 80.955 306.887.834 264 .834c-32.434 0-47.966 34.127-53.674 51.012-4.532-1.794-9.655-2.887-15.469-2.887s-10.931 1.093-15.469 2.887C173.68 34.968 158.142.834 125.714.834c-42.887 0-69.143 80.121-69.143 123.75h12.572c0-37.654 23.892-110 56.571-110 25.602 0 38.274 30.903 42.498 43.993-8.14 6.91-13.125 16.314-15.652 24.131-22.433 7.254-39.417 20.949-39.417 41.876 0 17.593 4.733 30.037 8.787 37.579-7.455 2.929-14.664 8.174-18.499 16.864C89.458 176.6 44 165.098 44 117.709H31.428c0 50.201 42.442 70.208 69.194 74.807-.007.282-.051.529-.051.818l-.031 4.881a737.643 737.643 0 00.635 37.71l-14.69-10.712c-5.098-3.712-11.201-4.977-17.185-3.575-5.984 1.41-11.07 5.308-14.306 10.994L32.39 272.183l10.654 7.295 22.61-39.559c1.427-2.496 3.665-4.214 6.298-4.833 2.628-.633 5.324-.069 7.562 1.574l22.654 16.514c.886 12.361 2.106 24.069 3.727 34.973l-9.02-7.858c-4.249-3.712-9.768-5.197-15.08-4.091-5.342 1.107-9.956 4.71-12.659 9.88L.83 416.792l10.912 6.82 68.294-130.728c.886-1.691 2.338-2.826 4.092-3.197 1.747-.378 3.488.103 4.871 1.327l20.473 17.896.214.172c6.964 32.649 17.851 57.351 32.679 73.727 14.212 15.682 31.862 23.636 52.486 23.636 20.623 0 38.273-7.954 52.485-23.636 14.828-16.376 25.722-41.085 32.68-73.741l20.686-18.054c1.389-1.224 3.124-1.691 4.872-1.327 1.753.371 3.212 1.506 4.092 3.197l68.294 130.728 10.912-6.82-68.282-130.728zM194.857 62.709c14.187 0 22.233 8.401 26.651 16.142a149.967 149.967 0 00-26.651-2.392c-8.945 0-18.021.818-26.739 2.413 4.381-7.755 12.414-16.163 26.739-16.163zm-69.143 61.875c0-20.934 31.316-32.835 62.857-34.237v54.862h12.572V90.347C232.684 91.749 264 103.65 264 124.584c0 19.044-6.437 30.367-9.341 34.526a41.96 41.96 0 00-3.231-.151H138.286c-1.006 0-2.1.062-3.231.151-2.904-4.166-9.341-15.482-9.341-34.526zm-12.603 73.762l.032-5.012c0-20.233 24.131-20.618 25.143-20.625h50.285v219.698c-14.57-1.389-26.808-7.728-37.268-19.278-26.098-28.813-38.946-87.622-38.192-174.783zm125.3 174.783c-10.453 11.55-22.698 17.889-37.268 19.278V172.709h50.285c1.025 0 25.143.234 25.143 20.625l.032 5.012c.754 87.161-12.094 145.97-38.192 174.783z" fill="#6D9B7F"/><path d="M180.444 140.348c-13.86-15.159-1.439-29.92.025-31.549l-4.469-4.84-4.444-4.86c-8.058 8.813-18.436 30.813 0 50.971l8.888-9.722zm37.714 9.722c18.436-20.158 8.059-42.158 0-50.972l-8.888 9.722c1.471 1.615 14.011 16.204 0 31.528l8.888 9.722z" fill="#6D9B7F"/></svg>